<svg id="Layer_1" data-name="Layer 1" xmlns="http://www.w3.org/2000/svg" xmlns:xlink="http://www.w3.org/1999/xlink" viewBox="0 0 156.41 176.73"><defs><style>.cls-1{fill:none;}.cls-1,.cls-3,.cls-4,.cls-5{stroke:#231f20;stroke-miterlimit:10;}.cls-2{clip-path:url(#clip-path);}.cls-3{fill:#e5e516;}.cls-4{fill:#cf2b27;}.cls-5{fill:#5159a7;}</style><clipPath id="clip-path"><rect class="cls-1" x="15.84" y="4.35" width="124.73" height="169.66"/></clipPath></defs><g class="cls-2"><path class="cls-3" d="M35.68,174a14.17,14.17,0,0,0-21.26-12.28V176"/><path class="cls-4" d="M92.38,174a14.17,14.17,0,0,0-7.09-12.28,14.18,14.18,0,0,1-7.09-12.27,14.17,14.17,0,0,1-7.08,12.27A14.17,14.17,0,0,0,64,174"/><path class="cls-5" d="M120.72,174A14.18,14.18,0,0,1,142,161.74v15"/><path class="cls-3" d="M120.72,174a14.18,14.18,0,0,0-7.08-12.28,14.16,14.16,0,0,1-7.09-12.27,14.16,14.16,0,0,1-7.09,12.27A14.18,14.18,0,0,0,92.38,174"/><path class="cls-5" d="M35.68,174a14.18,14.18,0,0,0-7.08-12.28,14.18,14.18,0,0,0,14.17,0A14.18,14.18,0,0,1,64,174"/><path class="cls-5" d="M14.42,137.19a14.17,14.17,0,0,1,7.09,12.28,14.16,14.16,0,0,0,7.09,12.27,14.19,14.19,0,0,0-14.18,0"/><path class="cls-3" d="M71.12,161.74a14.18,14.18,0,0,0,0-24.55A14.16,14.16,0,0,1,64,124.92a14.18,14.18,0,0,1-21.26,12.27,14.17,14.17,0,0,1,0,24.55A14.18,14.18,0,0,1,64,174,14.17,14.17,0,0,1,71.12,161.74Z"/><path class="cls-3" d="M142,161.74a14.18,14.18,0,0,0-14.17,0,14.16,14.16,0,0,0,7.09-12.27A14.18,14.18,0,0,1,142,137.19"/><path class="cls-4" d="M127.81,161.74a14.17,14.17,0,0,0-14.17-24.55,14.19,14.19,0,0,1-14.18,0,14.17,14.17,0,0,1,7.09,12.28,14.16,14.16,0,0,0,7.09,12.27A14.18,14.18,0,0,1,120.72,174,14.19,14.19,0,0,1,127.81,161.74Z"/><path class="cls-4" d="M42.77,161.74a14.17,14.17,0,0,0,0-24.55,14.18,14.18,0,0,1-7.09-12.27,14.17,14.17,0,0,1-7.08,12.27,14.17,14.17,0,0,0,14.17,24.55Z"/><path class="cls-5" d="M92.38,174a14.18,14.18,0,0,1,7.08-12.28,14.18,14.18,0,1,0-14.17,0A14.17,14.17,0,0,1,92.38,174Z"/><path class="cls-3" d="M14.42,137.19a14.17,14.17,0,0,1,7.09,12.28,14.17,14.17,0,0,1,7.09-12.28,14.18,14.18,0,1,0-14.18-24.55"/><path class="cls-5" d="M64,124.92a14.19,14.19,0,0,1,7.09-12.28,14.15,14.15,0,0,1-14.18,0A14.17,14.17,0,1,0,64,124.92Z"/><path class="cls-3" d="M113.64,112.64a14.18,14.18,0,1,0,7.08,12.28A14.19,14.19,0,0,0,113.64,112.64Z"/><path class="cls-4" d="M78.2,149.47a14.18,14.18,0,0,1,21.26-12.28,14.17,14.17,0,0,1-7.08-12.27,14.18,14.18,0,1,0-21.26,12.27A14.18,14.18,0,0,1,78.2,149.47Z"/><path class="cls-5" d="M142,112.64a14.18,14.18,0,0,0-14.17,0,14.13,14.13,0,0,1-14.17,0,14.18,14.18,0,0,1,0,24.55,14.18,14.18,0,0,1,21.26,12.28A14.18,14.18,0,0,1,142,137.19"/><path class="cls-3" d="M142,88.09a14.18,14.18,0,0,0,0,24.55"/><path class="cls-4" d="M49.86,100.37a14.17,14.17,0,0,0,7.08,12.27,14.18,14.18,0,0,0-21.26,12.28,14.17,14.17,0,0,0-21.26-12.28,14.16,14.16,0,0,0,7.09-12.27,14.18,14.18,0,1,1,28.35,0Z"/><path class="cls-4" d="M142,112.64a14.18,14.18,0,0,0-14.17,0,14.17,14.17,0,1,1,7.09-12.27A14.17,14.17,0,0,0,142,112.64Z"/><path class="cls-5" d="M14.42,88.09a14.15,14.15,0,0,0,14.18,0,14.19,14.19,0,0,0-7.09,12.28,14.16,14.16,0,0,1-7.09,12.27"/><path class="cls-3" d="M71.12,112.64a14.17,14.17,0,0,0,7.08-12.27,14.21,14.21,0,0,1,7.09-12.28,14.13,14.13,0,0,1-14.17,0,14.18,14.18,0,1,0,0,24.55Z"/><path class="cls-5" d="M92.38,124.92a14.17,14.17,0,0,1,21.26-12.28,14.17,14.17,0,0,1,0-24.55,14.15,14.15,0,0,1-14.18,0A14.18,14.18,0,0,0,78.2,100.37a14.17,14.17,0,0,1-7.08,12.27,14.18,14.18,0,0,1,21.26,12.28Z"/><path class="cls-3" d="M14.42,88.09a14.15,14.15,0,0,0,14.18,0,14.18,14.18,0,0,1,14.17,0,14.16,14.16,0,0,1,0-24.54,14.18,14.18,0,0,1-14.17,0A14.17,14.17,0,0,0,7.34,75.82"/><path class="cls-5" d="M56.94,63.55a14.16,14.16,0,0,1,0,24.54,14.2,14.2,0,0,0-7.08,12.28,14.21,14.21,0,0,0-7.09-12.28A14.17,14.17,0,0,1,56.94,63.55Z"/><path class="cls-4" d="M85.29,88.09A14.17,14.17,0,1,0,64,75.82a14.16,14.16,0,0,1-7.09,12.27,14.19,14.19,0,0,1,14.18,0A14.13,14.13,0,0,0,85.29,88.09Z"/><path class="cls-3" d="M113.64,88.09a14.15,14.15,0,0,1-14.18,0,14.18,14.18,0,0,0-14.17,0,14.16,14.16,0,0,0,0-24.54,14.18,14.18,0,0,0,14.17,0,14.15,14.15,0,0,1,14.18,0,14.18,14.18,0,0,0,14.17,0,14.16,14.16,0,0,0,0,24.54A14.18,14.18,0,0,0,113.64,88.09Z"/><path class="cls-5" d="M142,63.55a14.17,14.17,0,1,0-14.17,24.54,14.19,14.19,0,0,1,7.09,12.28A14.2,14.2,0,0,1,142,88.09a14.16,14.16,0,0,0,7.09-12.27,14.16,14.16,0,0,1,7.09-12.27A14.19,14.19,0,0,1,142,63.55Z"/><path class="cls-4" d="M42.77,39a14.16,14.16,0,0,1,7.09,12.27,14.2,14.2,0,0,0,7.08,12.28,14.13,14.13,0,0,0-14.17,0,14.17,14.17,0,1,1,0-24.55Z"/><path class="cls-5" d="M14.42,39a14.16,14.16,0,0,1,7.09,12.27A14.19,14.19,0,0,0,28.6,63.55,14.17,14.17,0,0,0,7.34,75.82,14.18,14.18,0,0,0,.25,63.55"/><path class="cls-3" d="M42.77,39a14.16,14.16,0,0,1,7.09,12.27,14.2,14.2,0,0,0,7.08,12.28A14.16,14.16,0,0,1,64,75.82a14.16,14.16,0,0,1,7.09-12.27A14.2,14.2,0,0,0,78.2,51.27,14.18,14.18,0,0,1,85.29,39a14.18,14.18,0,0,1-14.17,0,14.15,14.15,0,0,0-14.18,0A14.18,14.18,0,0,1,42.77,39Z"/><path class="cls-5" d="M85.29,39a14.19,14.19,0,0,0,7.09-12.28A14.2,14.2,0,0,0,99.46,39,14.17,14.17,0,0,1,85.29,63.55a14.13,14.13,0,0,0-14.17,0A14.2,14.2,0,0,0,78.2,51.27,14.18,14.18,0,0,1,85.29,39Z"/><path class="cls-3" d="M156.16,63.55a14.19,14.19,0,0,1-14.18,0,14.13,14.13,0,0,0-14.17,0,14.19,14.19,0,0,0,7.09-12.28A14.17,14.17,0,0,1,142,39a14.19,14.19,0,0,0,7.09-12.28A14.19,14.19,0,0,0,156.16,39"/><path class="cls-4" d="M127.81,39a14.21,14.21,0,0,1-7.09-12.28A14.2,14.2,0,0,1,113.64,39a14.16,14.16,0,0,0-7.09,12.27,14.19,14.19,0,0,1-7.09,12.28,14.15,14.15,0,0,1,14.18,0A14.18,14.18,0,0,0,134.9,51.27,14.17,14.17,0,0,1,142,39,14.18,14.18,0,0,1,127.81,39Z"/><path class="cls-3" d="M146.93.6l-12,1.57A14.18,14.18,0,0,0,142,14.45Z"/><path class="cls-4" d="M106.55,2.17a14.17,14.17,0,0,1-7.09,12.28,14.19,14.19,0,0,1,14.18,0A14.18,14.18,0,0,0,134.9,2.17"/><path class="cls-5" d="M14.42,14.45A14.17,14.17,0,0,0,21.51,2.17l-13-.07"/><path class="cls-4" d="M49.86,2.17a14.19,14.19,0,0,1-7.09,12.28,14.18,14.18,0,0,0-7.09,12.27A14.17,14.17,0,0,0,14.42,14.45,14.17,14.17,0,0,0,21.51,2.17"/><path class="cls-3" d="M78.2,2.17a14.19,14.19,0,0,0,7.09,12.28,14.18,14.18,0,0,0-14.17,0,14.19,14.19,0,0,1-14.18,0,14.18,14.18,0,0,0-14.17,0A14.19,14.19,0,0,0,49.86,2.17"/><path class="cls-5" d="M106.55,2.17a14.18,14.18,0,1,1-28.35,0"/><path class="cls-3" d="M14.42,39a14.16,14.16,0,0,1,7.09,12.27A14.16,14.16,0,0,1,28.6,39,14.18,14.18,0,0,0,14.42,14.45"/><path class="cls-5" d="M56.94,14.45A14.18,14.18,0,0,0,35.68,26.72,14.2,14.2,0,0,1,28.6,39a14.13,14.13,0,0,1,14.17,0A14.18,14.18,0,0,0,64,26.72a14.16,14.16,0,0,1,7.09-12.27A14.19,14.19,0,0,1,56.94,14.45Z"/><path class="cls-4" d="M85.29,14.45A14.18,14.18,0,0,0,64,26.72,14.19,14.19,0,0,1,56.94,39a14.15,14.15,0,0,1,14.18,0A14.18,14.18,0,0,0,92.38,26.72a14.17,14.17,0,0,1,7.08-12.27A14.18,14.18,0,0,1,85.29,14.45Z"/><path class="cls-3" d="M113.64,14.45A14.18,14.18,0,0,0,99.46,39a14.16,14.16,0,0,1,7.09,12.27A14.16,14.16,0,0,1,113.64,39a14.2,14.2,0,0,0,7.08-12.28,14.18,14.18,0,0,1,7.09-12.27A14.18,14.18,0,0,1,113.64,14.45Z"/><path class="cls-5" d="M134.9,2.17A14.18,14.18,0,0,0,142,14.45a14.18,14.18,0,1,1-14.17,0A14.17,14.17,0,0,0,134.9,2.17Z"/></g><rect class="cls-1" x="15.84" y="4.35" width="124.73" height="169.66"/></svg>